<?xml version="1.0" encoding="UTF-8" standalone="no"?>
<!-- Created with Inkscape (http://www.inkscape.org/) -->

<svg
   xmlns:dc="http://purl.org/dc/elements/1.1/"
   xmlns:cc="http://creativecommons.org/ns#"
   xmlns:rdf="http://www.w3.org/1999/02/22-rdf-syntax-ns#"
   xmlns:svg="http://www.w3.org/2000/svg"
   xmlns="http://www.w3.org/2000/svg"
   xmlns:sodipodi="http://sodipodi.sourceforge.net/DTD/sodipodi-0.dtd"
   xmlns:inkscape="http://www.inkscape.org/namespaces/inkscape"
   width="210mm"
   height="297mm"
   viewBox="0 0 744.09448819 1052.3622047"
   id="svg2"
   version="1.1"
   inkscape:version="0.91 r13725"
   sodipodi:docname="house.svg">
  <defs
     id="defs4" />
  <sodipodi:namedview
     id="base"
     pagecolor="#ffffff"
     bordercolor="#666666"
     borderopacity="1.0"
     inkscape:pageopacity="0.0"
     inkscape:pageshadow="2"
     inkscape:zoom="0.35"
     inkscape:cx="375"
     inkscape:cy="520"
     inkscape:document-units="px"
     inkscape:current-layer="layer1"
     showgrid="false"
     inkscape:window-width="1920"
     inkscape:window-height="1028"
     inkscape:window-x="1672"
     inkscape:window-y="-8"
     inkscape:window-maximized="1" />
  <metadata
     id="metadata7">
    <rdf:RDF>
      <cc:Work
         rdf:about="">
        <dc:format>image/svg+xml</dc:format>
        <dc:type
           rdf:resource="http://purl.org/dc/dcmitype/StillImage" />
        <dc:title></dc:title>
      </cc:Work>
    </rdf:RDF>
  </metadata>
  <g
     inkscape:label="Layer 1"
     inkscape:groupmode="layer"
     id="layer1">
    <path
       style="fill:#000000"
       d="m 31.584822,755.21936 0,-139.21875 339.843748,0 339.84375,0 0,139.21875 0,139.21874 -339.84375,0 -339.843748,0 0,-139.21874 z m 289.687498,68.4375 0,-67.03125 -40.78125,0 -40.78125,0 0,-2.34375 0,-2.34375 43.125,0 43.125,0 0,69.375 0,69.37499 81.5625,0 81.5625,0 0,-33.74999 0,-33.75 2.34375,0 2.34375,0 0,32.8125 0,32.81249 106.40625,0 106.40625,0 0,-69.84374 0,-69.84375 -46.875,0 -46.875,0 0,-2.8125 0,-2.8125 46.875,0 46.875,0 0,-61.40625 0,-61.40625 -105.9375,0 -105.9375,0 0,61.40625 0,61.40625 45.46875,0 45.46875,0 0,2.8125 0,2.8125 -45.9375,0 -45.9375,0 0,28.125 0,28.125 -2.49245,0 -2.49246,0 0.55681,-42.65625 0.55681,-42.65625 -46.81435,0 -46.81436,0 0,-2.34375 0,-2.34375 46.875,0 46.875,0 0,-47.34375 0,-47.34375 -82.03125,0 -82.03125,0 0,47.34375 0,47.34375 24.375,0 24.375,0 0,2.34375 0,2.34375 -26.71875,0 -26.71875,0 0,-49.6875 0,-49.6875 -142.5,0 -142.499998,0 0,65.625 0,65.625 88.124998,0 88.125,0 0,2.34375 0,2.34375 -88.125,0 -88.124998,0 0,67.03125 0,67.03124 142.499998,0 142.5,0 0,-67.03124 z"
       id="path3347"
       inkscape:connector-curvature="0" />
  </g>
</svg>
